<?xml version="1.0" encoding="utf-8" ?>
<svg xmlns="http://www.w3.org/2000/svg" xmlns:xlink="http://www.w3.org/1999/xlink" width="1024" height="1024">
	<path fill="#F2F1F1" d="M0 0L1024 0L1024 1024L0 1024L0 0Z"/>
	<path fill="#0BA7DD" d="M641.333 385.815C650.125 390.308 659.277 394.771 668.388 398.565L668.48 468.374C659.59 463.874 650.364 460.144 641.422 455.778C641.964 432.514 641.376 409.095 641.333 385.815Z"/>
	<path fill="#0BA7DD" d="M354.522 399.928C364.272 395.115 374.262 390.703 383.876 385.629C384.244 400.861 384.02 416.129 384.029 431.366C384.035 439.586 383.55 448.213 384.656 456.363C374.755 461.543 364.69 466.739 354.5 471.32L354.522 399.928Z"/>
	<path fill="#126ABA" d="M367.981 325.444C369.349 326.987 368.843 369.468 368.858 375.268C358.913 379.212 349.505 384.762 339.903 389.481L339.852 431.949C339.763 447.225 339.415 462.549 339.739 477.82C325.763 485.05 311.494 491.75 297.329 498.604C296.817 498.514 297.166 498.614 296.437 497.979C295.74 492.592 296.056 486.922 296.056 481.492L296.098 453.216L296.16 361.289C319.653 348.505 344.599 338.399 367.981 325.444Z"/>
	<path fill="#2F3E4D" d="M655.54 324.353C679.524 337.068 704.614 347.827 728.459 360.795L728.265 495.411C725.008 495.012 689.211 477.974 683.806 475.033L683.713 389.397C674.788 384.405 664.989 379.538 655.489 375.75L655.54 324.353Z"/>
	<path fill="#0BA7DD" d="M502.013 247.431L502.595 247.958C503.332 252.284 502.919 257.082 502.896 261.492C502.846 271.321 502.54 281.143 502.517 290.974L502.547 398.124C484.552 408.281 465.103 416.125 446.72 425.587L446.188 425.259C444.816 423.004 445.562 292.455 445.595 276.356C464.782 267.701 483.455 257.359 502.013 247.431Z"/>
	<path fill="#0BA7DD" d="M519.746 247.625C526.807 250.316 533.646 253.927 540.451 257.204L579.951 276.565L579.936 385.387L580.045 412.228C580.066 416.987 580.524 422.317 579.719 426.996C559.533 419.064 539.293 408.25 519.551 398.982L519.746 247.625Z"/>
	<path fill="#126ABA" d="M383.866 239.135C397.397 231.66 411.416 225.037 425.196 218.035L502.5 178.566C502.431 195.984 501.86 213.588 502.557 230.982C478.949 244.016 454.195 254.959 430.3 267.418C429.292 322.942 430.894 378.474 430.111 433.993C423.72 437.722 416.88 440.769 410.221 443.989C401.7 448.109 393.223 452.342 384.656 456.363C383.55 448.213 384.035 439.586 384.029 431.366C384.02 416.129 384.244 400.861 383.876 385.629C382.808 365.883 383.812 345.799 383.848 326.007C383.902 297.066 383.396 268.07 383.866 239.135Z"/>
	<path fill="#2F3E4D" d="M520.346 178.239C536.538 186.886 553.322 194.494 569.754 202.676C593.542 214.521 617.165 226.777 641.192 238.129L641.333 385.815C641.376 409.095 641.964 432.514 641.422 455.778C625.89 448.154 609.636 441.873 594.482 433.544C593.775 378.004 594.443 322.371 594.532 266.827C569.562 255.03 544.406 243.232 519.965 230.377Q520.523 204.311 520.346 178.239Z"/>
	<path fill="#2F3E4D" d="M520.706 419.032C528.64 421.736 536.501 426.175 544.183 429.618C567.199 439.933 589.869 450.977 612.755 461.565L688.468 496.434C718.666 510.097 749.08 523.523 778.815 538.17C779.445 560.253 779.111 582.467 779.094 604.56C764.227 598.715 749.984 591.194 735.413 584.638L636.809 540.245C621.296 533.225 606.133 525.668 590.43 519.062L590.459 618.19C605.575 618.604 620.698 618.042 635.815 618.017L728.931 618.013L728.814 681.229C705.703 681.842 682.487 681.418 659.369 681.241Q624.867 681.011 590.365 681.199L590.301 730.075C590.212 749.802 589.943 769.562 590.295 789.285C603.275 787.875 616.429 784.452 629.287 782.011Q691.542 769.897 752.73 753.21C772.286 748.016 791.779 742.697 811.421 737.831C818.705 736.026 825.939 733.945 833.303 732.491L520.609 844.983C520.027 813.857 520.479 782.641 520.495 751.507L520.52 576.955L520.658 469.832L520.538 438.142C520.504 431.81 520.199 425.338 520.706 419.032Z"/>
	<path fill="#5B5B5B" d="M501.44 417.954L501.97 418.014C502.132 418.243 502.373 418.433 502.456 418.701C503.062 420.655 502.511 433.968 502.515 437.236L502.536 508.15L502.56 845.99L199.453 733.18L199.406 732.912L198.483 732.851L198.808 732.992L198.738 732.779C214.107 735.648 229.267 740.648 244.475 744.414L244.575 718.295Q245.089 628.241 244.528 538.187C251.54 533.722 259.564 530.238 266.987 526.459Q287.028 516.143 307.256 506.198C323.678 528.372 338.445 552.004 353.982 574.822L435.966 693.414Q436.607 639.515 436.079 585.614L436.298 523.723Q436.143 500.72 436.249 477.718C436.282 468.722 436.92 459.236 435.955 450.304C442.381 446.36 449.573 443.265 456.341 439.931C471.338 432.544 486.516 425.48 501.44 417.954Z"/>
	<path fill="#F2F1F1" d="M308.591 618.734C313.912 622.322 333.577 653.506 338.169 660.175L402.04 753.949C407.762 762.405 413.745 770.672 419.398 779.178C421.575 782.453 424.175 785.817 425.79 789.387C415.861 787.562 406.087 783.565 396.307 780.945L330.893 763.698C323.592 761.797 316.399 759.539 309.074 757.712L308.591 618.734Z"/>
</svg>
