<?xml version="1.0" encoding="utf-8" ?>
<svg xmlns="http://www.w3.org/2000/svg" xmlns:xlink="http://www.w3.org/1999/xlink" width="1024" height="1024">
	<path fill="#FEFEFE" d="M0 0L1024 0L1024 1024L0 1024L0 0Z"/>
	<path fill="#1591D1" d="M518.869 433.768C534.575 449.389 551.306 464.266 567.555 479.342Q567.206 519.044 567.444 558.746C563.375 555.951 559.327 551.38 555.632 547.999C543.195 536.616 530.595 524.945 519.018 512.682C518.59 486.393 519.041 460.064 518.869 433.768Z"/>
	<path fill="#1591D1" d="M580.05 491.721C584.465 494.582 588.646 499.43 592.5 503.095C605.057 515.036 617.052 527.471 629.453 539.553L629.33 616.974C625.927 613.954 622.777 610.556 619.453 607.436C606.234 595.029 593.285 582.311 579.668 570.339C579.953 544.137 579.635 517.919 580.05 491.721Z"/>
	<path fill="#1591D1" d="M519.108 258.301C523.129 260.982 526.856 265.486 530.363 268.849Q549.409 287.343 567.964 306.33C566.334 324.503 567.326 343.419 567.373 361.679L567.493 455.271C567.297 455.444 567.413 455.389 567.142 455.429C563.911 453.825 553.818 442.851 550.286 439.593C539.903 430.014 529.055 420.972 518.911 411.122C519.245 360.196 518.374 309.215 519.108 258.301Z"/>
	<path fill="#1591D1" d="M579.667 316.384C590.101 326.212 599.992 336.723 610.01 346.974C616.37 353.481 622.97 359.743 629.27 366.309Q628.927 440.06 629.523 513.805C629.146 513.754 628.744 513.796 628.391 513.652C625.29 512.381 584.943 473.547 579.516 468.287L579.667 316.384Z"/>
	<path fill="#1591D1" d="M579.936 594.721L606.777 620.462C614.179 627.426 621.823 634.119 629.14 641.176C629.979 689.484 628.732 737.835 629.664 786.132L592.671 786.218C586.897 786.243 581.053 786.584 575.292 786.357C576.843 786.325 578.685 786.567 579.989 785.619C581.223 781.09 580.148 746.206 580.136 738.908L579.936 594.721Z"/>
	<path fill="#1591D1" d="M518.525 535.771C523.811 541.79 530.001 547.168 535.851 552.633C546.459 562.544 557.26 572.433 567.491 582.725L567.344 701.815Q567.034 730.349 567.333 758.881C567.39 767.115 567.051 775.575 567.53 783.773C567.589 784.772 567.578 785.362 568.246 786.15L568.986 786.44L518.502 786.129L518.56 601.203C518.523 579.408 518.923 557.557 518.525 535.771Z"/>
	<path fill="#A6B8C3" d="M505.803 248.929C507.286 254.441 506.407 269.898 506.407 276.454L506.389 334.882L506.501 614.274C500.063 608.951 493.92 601.204 488.499 594.822C482.538 587.742 475.388 581.242 470.043 573.717Q469.673 538.297 469.902 502.876L469.721 394.915L469.556 317.202C469.528 302.998 469.112 288.643 469.711 274.458C480.552 265.012 494.458 258.217 505.803 248.929Z"/>
	<path fill="#233F65" d="M578.941 208.748Q664.571 208.343 750.201 208.974C772.876 209.012 795.622 209.354 818.289 208.789C818.816 240.351 818.513 271.959 818.568 303.527L874.433 303.382L874.429 413.824C858.622 413.306 842.727 413.567 826.909 413.534L743.979 413.499L743.989 433.724C737.926 428.952 732.541 422.691 727.114 417.188L700.854 390.847L612.101 303.211Q656.295 303.651 700.492 303.546L789.586 303.728L789.538 238.219C757.223 237.625 724.836 238.079 692.511 238.083L517.75 237.969L449.393 237.998L449.483 548.372L315.672 388.323C307.245 378.172 298.488 368.317 290.07 358.152C288.124 355.803 284.911 352.828 283.641 350.111L284.176 350.91L284.75 350.541C288.173 354.699 293.228 358.651 297.189 362.396Q315.41 379.373 333.912 396.044L420.455 476.179L420.75 208.846C473.442 209.176 526.254 209.339 578.941 208.748Z"/>
	<path fill="#233F65" d="M181.438 282.636C184.549 287.208 188.396 291.275 191.985 295.474Q202.219 307.451 212.617 319.286C230.254 339.634 247.597 360.291 264.912 380.914Q362.81 496.432 459.471 612.986C475.385 632.411 492.278 651.073 507.742 670.869L508.132 786.135L518.502 786.129L568.986 786.44C571.079 786.393 573.202 786.264 575.292 786.357C581.053 786.584 586.897 786.243 592.671 786.218L629.664 786.132L638.948 786.05L638.747 374.782C653.295 389.759 668.37 404.153 683.133 418.907L744.012 479.995C743.585 489.1 743.74 498.238 743.864 507.348C776.369 506.449 808.989 506.93 841.51 506.919L841.504 610.976L744.19 610.785L744.047 786.423L902.853 786.494C902.969 795.749 902.837 805.019 902.812 814.276Q833.725 814.69 764.639 814.145L615.494 813.994L121.061 814.052L120.994 785.745C141.102 785.288 161.318 785.64 181.432 785.765C180.248 728.715 181.391 671.436 181.424 614.365L181.438 282.636Z"/>
	<path fill="#FEFEFE" d="M285.561 592.229C290.441 595.533 307.512 618.214 312.484 624.142L396.553 726.105C412.71 745.816 430.116 765.137 444.751 786.009L285.636 786.28C285.188 762.366 285.514 738.386 285.531 714.465L285.561 592.229Z"/>
</svg>
